<svg width="28" height="22" viewBox="0 0 28 22" fill="none" xmlns="http://www.w3.org/2000/svg">
<path d="M28 0.5L27.1332 2.83333H24.8827L20.8297 16.8333H5.38417L0 4H19.614L18.956 6.33333H3.50933L6.93583 14.5H19.1018L23.1058 0.5H28ZM9.91667 18C8.95067 18 8.16667 18.784 8.16667 19.75C8.16667 20.7172 8.95067 21.5 9.91667 21.5C10.8827 21.5 11.6667 20.7172 11.6667 19.75C11.6667 18.784 10.8827 18 9.91667 18ZM17.9667 9.83333L15.75 18C14.784 18 14 18.7828 14 19.75C14 20.7172 14.784 21.5 15.75 21.5C16.716 21.5 17.5 20.7172 17.5 19.75C17.5 18.784 16.716 18 15.75 18L17.9667 9.83333Z" fill="#686458"/>
</svg>
