<svg width="28" height="28" viewBox="0 0 28 28" fill="none" xmlns="http://www.w3.org/2000/svg">
<path fill-rule="evenodd" clip-rule="evenodd" d="M24.7695 0H3.2305C1.44667 0 0 1.44667 0 3.2305V24.7672C0 26.5533 1.44667 28 3.2305 28H24.7707C26.5545 28 28 26.5533 28 24.7672V3.2305C28 1.44667 26.5545 0 24.7695 0V0ZM14 8.61583C16.9738 8.61583 19.3853 11.025 19.3853 14C19.3853 16.9738 16.9738 19.3853 14 19.3853C11.0262 19.3853 8.61583 16.9727 8.61583 14C8.61583 11.025 11.0262 8.61583 14 8.61583ZM24.5 23.4243C24.5 24.0182 24.0182 24.5 23.422 24.5H4.578C3.98183 24.5 3.5 24.0182 3.5 23.4243V11.6667H5.71317C5.6105 12.0342 5.53467 12.4133 5.47983 12.7995C5.4215 13.1927 5.38533 13.5917 5.38533 14C5.38533 18.7588 9.24233 22.6158 14 22.6158C18.7577 22.6158 22.6147 18.7588 22.6147 14C22.6147 13.5917 22.5785 13.1927 22.5202 12.8007C22.4653 12.4145 22.3895 12.0353 22.2868 11.6678H24.5V23.4243ZM24.5 7.11433C24.5 7.70817 24.0182 8.19117 23.422 8.19117H20.8857C20.2895 8.19117 19.8088 7.70817 19.8088 7.11433V4.57683C19.8088 3.98183 20.2895 3.5 20.8857 3.5H23.422C24.0182 3.5 24.5 3.98183 24.5 4.57683V7.11433Z" fill="#686458"/>
</svg>
