<svg width="28" height="28" viewBox="0 0 28 28" fill="none" xmlns="http://www.w3.org/2000/svg">
<path d="M14 0C8.56213 0 4.13757 4.42417 4.13757 9.86327C4.13757 14.9124 12.1899 26.01 13.1082 27.2595L13.4461 27.7184C13.5747 27.8948 13.7823 27.9999 14.0001 27.9999C14.2178 27.9999 14.4258 27.8948 14.5532 27.7201L14.8919 27.2595C15.8102 26.01 23.8626 14.9124 23.8626 9.86327C23.8625 4.42456 19.4383 0 14 0ZM14 2.21398C18.2174 2.21398 21.6485 5.64587 21.6485 9.86327C21.6485 12.7459 17.769 19.3088 14 24.695C10.231 19.3088 6.35147 12.7459 6.35147 9.86327C6.35155 5.64587 9.78259 2.21398 14 2.21398Z" fill="#686458"/>
<path d="M14 14.7523C16.2324 14.7523 18.0489 12.9367 18.0489 10.7038C18.0489 8.4709 16.2324 6.65454 14 6.65454C11.7675 6.65454 9.95111 8.47097 9.95111 10.7038C9.95111 12.9366 11.7679 14.7523 14 14.7523ZM14 8.44826C15.2436 8.44826 16.2552 9.46025 16.2552 10.7038C16.2552 11.9474 15.2436 12.9586 14 12.9586C12.7564 12.9586 11.7448 11.9474 11.7448 10.7039C11.7448 9.46032 12.7564 8.44826 14 8.44826Z" fill="#686458"/>
<path d="M19.9119 9.15638C19.5635 9.15638 19.2378 8.9374 19.1172 8.589C18.449 6.65365 16.7065 5.23902 14.6779 4.98643C14.2173 4.92886 13.8907 4.5086 13.9478 4.04839C14.0059 3.58779 14.4257 3.26041 14.8859 3.31882C17.5458 3.65038 19.8304 5.50382 20.7066 8.04093C20.8579 8.48013 20.6251 8.95881 20.1867 9.10971C20.0952 9.14085 20.0023 9.15638 19.9119 9.15638Z" fill="#686458"/>
</svg>
