<svg width="20" height="28" viewBox="0 0 20 28" fill="none" xmlns="http://www.w3.org/2000/svg">
<path d="M3.20534 1.54233L6.52334 0L11.2378 9.205L8.05984 10.7695C7.43218 12.2383 10.5787 18.1067 11.9063 18.2035C12.0113 18.1358 15.0225 16.6542 15.0225 16.6542L19.8175 25.9082C19.8175 25.9082 16.5928 27.4878 16.4878 27.5368C7.31551 31.7263 -5.79899 6.23583 3.20534 1.54233ZM5.45584 3.02867L4.26234 3.61667C-1.91399 6.839 9.13551 28.3325 15.5183 25.417L16.6512 24.864L14.0017 19.7505L12.8047 20.3338C9.11451 22.1387 3.16568 10.745 6.90718 8.7395L8.08201 8.15967L5.45584 3.02867Z" fill="#686458"/>
</svg>
