<svg width="35" height="35" viewBox="0 0 35 35" fill="none" xmlns="http://www.w3.org/2000/svg">
<g clip-path="url(#clip0)">
<path d="M31.9908 31.1558L27.3572 19.9694C27.2392 19.6844 26.9125 19.549 26.6275 19.6671C26.3425 19.7852 26.2071 20.1119 26.3252 20.3968L30.5141 30.5096L26.6932 29.4025C26.4424 29.3298 26.1746 29.4407 26.0486 29.6696L24.1297 33.1542L19.635 22.303C24.8227 21.3026 28.7534 16.7288 28.7534 11.2535C28.7535 5.04834 23.7052 0 17.5 0C11.2948 0 6.24646 5.04834 6.24646 11.2535C6.24646 13.7669 7.07485 16.0903 8.47276 17.9656L3.00919 31.1558C2.92705 31.3542 2.96585 31.5821 3.10905 31.742C3.25218 31.902 3.47446 31.9657 3.68066 31.906L8.18844 30.5998L10.4523 34.7109C10.5509 34.8899 10.7388 35 10.9414 35C10.9517 35 10.962 34.9997 10.9724 34.9992C11.1868 34.9873 11.3753 34.8536 11.4575 34.6552L15.7868 24.2034C15.9048 23.9184 15.7695 23.5917 15.4845 23.4737C15.1995 23.3556 14.8728 23.491 14.7548 23.7759L10.8702 33.1542L8.95137 29.6696C8.82537 29.4407 8.55736 29.3298 8.3067 29.4025L4.48589 30.5096L9.28141 18.9322C11.3366 21.1305 14.2603 22.507 17.5 22.507C17.8344 22.507 18.1652 22.4914 18.4923 22.4628L23.5426 34.6552C23.6247 34.8536 23.8133 34.9873 24.0277 34.9991C24.0381 34.9997 24.0484 35 24.0587 35C24.2613 35 24.4492 34.8899 24.5477 34.7109L26.8116 30.5998L31.3194 31.906C31.5258 31.9658 31.7478 31.902 31.891 31.742C32.0342 31.5821 32.073 31.3542 31.9908 31.1558ZM7.36348 11.2535C7.36348 5.66427 11.9107 1.11702 17.5 1.11702C23.0893 1.11702 27.6365 5.66427 27.6365 11.2535C27.6365 16.8428 23.0893 21.39 17.5 21.39C11.9107 21.39 7.36348 16.8428 7.36348 11.2535Z" fill="#FFA928"/>
<path d="M23.9533 9.1566C23.889 8.95867 23.7198 8.81286 23.5145 8.77838L19.7564 8.14771L17.9953 4.76842C17.899 4.58382 17.7082 4.46802 17.5 4.46802C17.2918 4.46802 17.1009 4.58382 17.0047 4.76842L15.2435 8.14771L11.4854 8.77838C11.2801 8.81278 11.111 8.95859 11.0466 9.1566C10.9823 9.35461 11.0334 9.57191 11.1793 9.72048L13.849 12.4397L13.2875 16.2088C13.2568 16.4147 13.3432 16.6205 13.5116 16.743C13.6799 16.8652 13.9025 16.8838 14.0888 16.7911L17.5 15.0923L20.9111 16.7911C20.9899 16.8303 21.0751 16.8497 21.16 16.8497C21.2759 16.8497 21.3912 16.8136 21.4883 16.743C21.6568 16.6206 21.7432 16.4148 21.7125 16.2089L21.1511 12.4398L23.8207 9.72048C23.9666 9.57191 24.0176 9.35461 23.9533 9.1566ZM20.1591 11.8556C20.0364 11.9807 19.9794 12.156 20.0052 12.3292L20.4498 15.3134L17.749 13.9684C17.6705 13.9294 17.5853 13.9098 17.5 13.9098C17.4147 13.9098 17.3294 13.9293 17.251 13.9684L14.5502 15.3134L14.9948 12.3292C15.0206 12.156 14.9637 11.9806 14.8409 11.8556L12.7272 9.7026L15.7027 9.20322C15.8755 9.17425 16.0246 9.0659 16.1056 8.91056L17.5 6.235L18.8944 8.91063C18.9754 9.06598 19.1245 9.17433 19.2973 9.20329L22.2729 9.70268L20.1591 11.8556Z" fill="#FFA928"/>
<path d="M25.9604 11.817C25.6546 11.7761 25.3739 11.9915 25.3334 12.2973C24.8153 16.2074 21.4477 19.1561 17.5 19.1561C13.1425 19.1561 9.59749 15.6111 9.59749 11.2536C9.59749 6.89613 13.1425 3.35115 17.5 3.35115C21.4477 3.35115 24.8153 6.29979 25.3334 10.21C25.3739 10.5158 25.6551 10.7313 25.9604 10.6903C26.2661 10.6498 26.4813 10.369 26.4407 10.0633C25.8494 5.59994 22.0057 2.23413 17.5 2.23413C12.5266 2.23413 8.48047 6.28021 8.48047 11.2536C8.48047 16.2271 12.5266 20.2731 17.5 20.2731C22.0057 20.2731 25.8494 16.9072 26.4408 12.4439C26.4813 12.1382 26.2662 11.8575 25.9604 11.817Z" fill="#FFA928"/>
</g>
<defs>
<clipPath id="clip0">
<rect width="35" height="35" fill="white"/>
</clipPath>
</defs>
</svg>
