<svg width="28" height="24" viewBox="0 0 28 24" fill="none" xmlns="http://www.w3.org/2000/svg">
<path fill-rule="evenodd" clip-rule="evenodd" d="M28 3.31649C26.9515 3.78087 25.8394 4.08563 24.7007 4.22065C25.9005 3.50303 26.7982 2.37346 27.2265 1.04265C26.0987 1.71096 24.8648 2.18131 23.5783 2.43332C22.7127 1.51086 21.567 0.899695 20.3188 0.69456C19.0705 0.489426 17.7895 0.701777 16.6742 1.2987C15.5589 1.89562 14.6717 2.84378 14.15 3.99619C13.6283 5.14861 13.5014 6.44092 13.7888 7.67282C11.5051 7.55878 9.27092 6.96577 7.23126 5.93227C5.19159 4.89877 3.39207 3.44789 1.9495 1.67382C1.21506 2.93853 0.989994 4.43553 1.32007 5.86029C1.65014 7.28505 2.51057 8.53057 3.72633 9.34348C2.81458 9.31484 1.92291 9.06842 1.12583 8.62482C1.10867 9.96398 1.55957 11.2671 2.40069 12.3093C3.24182 13.3515 4.4204 14.0674 5.733 14.3333C4.88685 14.5631 3.9994 14.5966 3.13833 14.4313C3.50506 15.573 4.21958 16.5714 5.18188 17.2869C6.14418 18.0023 7.30609 18.399 8.505 18.4213C6.09653 20.3084 3.03771 21.1626 0 20.7966C2.62668 22.4845 5.68378 23.3804 8.806 23.3773C11.0195 23.392 13.2127 22.9543 15.2509 22.091C17.2892 21.2276 19.1295 19.9569 20.659 18.3567C22.1885 16.7565 23.3748 14.8607 24.1453 12.7856C24.9157 10.7104 25.254 8.49973 25.1393 6.28915C26.2617 5.47582 27.2304 4.46924 28 3.31649Z" fill="#686458"/>
</svg>
