<svg width="35" height="35" viewBox="0 0 35 35" fill="none" xmlns="http://www.w3.org/2000/svg">
<path d="M34.3164 17.387H33.9062V12.4651V8.09013C33.9062 6.6364 32.7658 5.44442 31.3327 5.36088L30.6304 2.46005C30.4177 1.58184 29.5302 1.0403 28.6522 1.25303L11.6259 5.3749C11.5807 5.3628 11.5334 5.35576 11.4844 5.35576H2.73438C1.22664 5.35576 0 6.5824 0 8.09013V31.0589C0 32.5666 1.22664 33.7933 2.73438 33.7933H31.1719C32.6796 33.7933 33.9062 32.5666 33.9062 31.0589V26.137H34.3164C34.6933 26.137 35 25.8303 35 25.4534V18.0706C35 17.6937 34.6933 17.387 34.3164 17.387ZM32.8125 8.09013V8.09129C32.5382 7.88492 32.224 7.72933 31.8838 7.63752L31.6107 6.50959C32.3029 6.70203 32.8125 7.33749 32.8125 8.09013ZM2.73438 6.44951H7.18703L2.62534 7.55385C2.62247 7.5544 2.61974 7.55529 2.61693 7.5559L2.60565 7.55864C2.60422 7.55898 2.60278 7.55953 2.60135 7.55994C2.58563 7.56383 2.57024 7.56841 2.55507 7.57361C2.55233 7.57457 2.54974 7.57559 2.54707 7.57655C2.53306 7.58167 2.51932 7.58721 2.50578 7.59343C2.50195 7.59521 2.49826 7.59706 2.4945 7.59883C2.48261 7.60464 2.47092 7.6108 2.45957 7.61743C2.45485 7.62016 2.45021 7.62303 2.44556 7.62597C2.43551 7.63226 2.4256 7.63882 2.41596 7.64573C2.41083 7.64942 2.40584 7.65318 2.40085 7.65701C2.39196 7.66384 2.38335 7.67088 2.37494 7.67827C2.37002 7.68257 2.36523 7.68695 2.36052 7.69139C2.35238 7.69905 2.34452 7.70684 2.33687 7.71491C2.33256 7.71942 2.32839 7.72407 2.32429 7.72878C2.3167 7.7374 2.30932 7.74628 2.30228 7.75538C2.29872 7.75989 2.2953 7.76454 2.29195 7.76912C2.28491 7.77882 2.27821 7.78873 2.27179 7.79885C2.26892 7.80336 2.26618 7.80794 2.26345 7.81259C2.25723 7.82305 2.25142 7.83372 2.24595 7.84458C2.24349 7.84951 2.24116 7.85443 2.23884 7.85935C2.23385 7.87008 2.2292 7.88088 2.22489 7.89196C2.22264 7.89777 2.22052 7.90365 2.21847 7.90953C2.21491 7.91978 2.21156 7.9301 2.20855 7.9407C2.20644 7.94808 2.20459 7.9556 2.20281 7.96312C2.20062 7.97228 2.19857 7.98144 2.19687 7.99074C2.19509 8.00017 2.19379 8.00974 2.19249 8.01924C2.19146 8.02704 2.19051 8.03476 2.18982 8.04262C2.18887 8.0537 2.18839 8.06491 2.18812 8.07612C2.18798 8.08063 2.18743 8.08507 2.18743 8.08965C2.18743 8.09225 2.18777 8.09471 2.18784 8.09731C2.18798 8.10818 2.18866 8.11905 2.18948 8.13005C2.1901 8.13805 2.19064 8.14605 2.19153 8.15398C2.19263 8.16307 2.19413 8.17216 2.1957 8.18132C2.19734 8.19089 2.19898 8.20046 2.2011 8.2099C2.20179 8.21284 2.20206 8.21578 2.20274 8.21872C2.20404 8.22391 2.20589 8.22883 2.20726 8.23396C2.20985 8.2436 2.21259 8.25317 2.21573 8.2626C2.2186 8.27122 2.22175 8.27962 2.22503 8.28796C2.22811 8.29589 2.23118 8.30369 2.23467 8.31141C2.23897 8.32112 2.24362 8.33055 2.24841 8.33992C2.25142 8.34573 2.25442 8.35161 2.25764 8.35728C2.26358 8.36788 2.26987 8.37813 2.27644 8.38825C2.27917 8.39242 2.2819 8.39659 2.28471 8.40069C2.29223 8.41156 2.30016 8.42208 2.30843 8.43234C2.31089 8.43541 2.31342 8.43856 2.31602 8.44157C2.3249 8.45209 2.33413 8.46228 2.34377 8.47212C2.3463 8.47472 2.34883 8.47732 2.35149 8.47985C2.36141 8.48956 2.37159 8.49885 2.38219 8.50774C2.38506 8.51013 2.38793 8.51252 2.39087 8.51492C2.40146 8.52346 2.41233 8.53166 2.42361 8.53939C2.42689 8.54171 2.43024 8.54397 2.43359 8.54616C2.44487 8.55361 2.45643 8.56058 2.46818 8.56721C2.47174 8.56919 2.47529 8.57111 2.47885 8.57302C2.49102 8.57945 2.50346 8.58539 2.5161 8.59093C2.51945 8.59237 2.5228 8.59387 2.52622 8.59524C2.53969 8.60084 2.55336 8.60577 2.5673 8.61028C2.56997 8.6111 2.57264 8.61199 2.5753 8.61281C2.59055 8.61746 2.60593 8.62142 2.62158 8.6247C2.62309 8.62498 2.62452 8.62539 2.62603 8.62566C2.64312 8.62915 2.66041 8.63174 2.67784 8.63359C2.67818 8.63359 2.67853 8.63366 2.67887 8.63373C2.69705 8.63557 2.71537 8.63653 2.7339 8.63653C2.73403 8.63653 2.73424 8.63653 2.73438 8.63653H2.73574C2.74258 8.63653 2.74928 8.6368 2.75611 8.63653H28.4375C28.7395 8.63653 28.9844 8.39166 28.9844 8.08965C28.9844 7.78764 28.7395 7.54278 28.4375 7.54278H7.3189L28.9095 2.31602C29.2016 2.24513 29.4967 2.4254 29.5673 2.71743L30.7355 7.54291H30.6253C30.3233 7.54291 30.0784 7.78778 30.0784 8.08979C30.0784 8.3918 30.3233 8.63666 30.6253 8.63666H31.1719C31.2269 8.63666 31.2813 8.63954 31.335 8.6448C31.3562 8.64876 31.3777 8.65136 31.3994 8.6528C32.1967 8.76395 32.8125 9.44987 32.8125 10.2773V10.2791C32.3552 9.93501 31.787 9.73076 31.1719 9.73076H2.73438C1.82971 9.73076 1.09375 8.99473 1.09375 8.09013C1.09375 7.18553 1.82978 6.44951 2.73438 6.44951ZM32.8125 31.0589C32.8125 31.9635 32.0765 32.6995 31.1719 32.6995H2.73438C1.82971 32.6995 1.09375 31.9635 1.09375 31.0589V10.2761C1.55107 10.6202 2.11928 10.8245 2.73438 10.8245H31.1719C32.0765 10.8245 32.8125 11.5605 32.8125 12.4651V17.387H24.8146C24.3999 17.387 24.0625 17.7244 24.0625 18.1391V25.3849C24.0625 25.7996 24.3999 26.137 24.8146 26.137H32.8125V31.0589ZM33.9062 25.0433H25.1562V18.4808H33.3514C33.3541 18.4808 33.3567 18.4812 33.3594 18.4812C33.362 18.4812 33.3646 18.4808 33.3673 18.4808H33.9062V25.0433Z" fill="#FFA928"/>
<path d="M29.5312 21.2151C29.2292 21.2151 28.9844 21.46 28.9844 21.762C28.9844 22.0635 28.739 22.3088 28.4375 22.3088C28.136 22.3088 27.8906 22.0635 27.8906 21.762C27.8906 21.4604 28.136 21.2151 28.4375 21.2151C28.7395 21.2151 28.9844 20.9702 28.9844 20.6682C28.9844 20.3662 28.7395 20.1213 28.4375 20.1213C27.5328 20.1213 26.7969 20.8574 26.7969 21.762C26.7969 22.6666 27.5328 23.4026 28.4375 23.4026C29.3422 23.4026 30.0781 22.6666 30.0781 21.762C30.0781 21.46 29.8333 21.2151 29.5312 21.2151Z" fill="#FFA928"/>
</svg>
